<svg width="88" height="88" viewBox="0 0 88 88" fill="none" xmlns="http://www.w3.org/2000/svg">
<path d="M88 44C88 68.3008 68.3008 88 44 88C19.6992 88 0 68.3008 0 44C0 19.6992 19.6992 0 44 0C68.3008 0 88 19.6992 88 44Z" fill="#F5F3EF"/>
<path d="M44.3911 32.9922H49.534C47.7595 33.8042 46.5565 35.5185 46.737 37.4433C46.9776 40.2403 49.534 41.323 49.534 44.6613C49.534 46.8568 48.0903 48.8117 46.5264 49.6237L41.8347 48.3305C43.4588 47.5786 44.5415 46.0147 44.4513 44.3004C44.331 41.6237 41.8347 40.4207 41.8347 37.4132C41.8648 35.338 43.0076 33.6839 44.3911 32.9922ZM59.549 46.8869V36.541H62.7069V32.9922H52.2708V36.541H55.3986V46.8869H59.549ZM9.68433 39.9395C9.68433 43.9395 12.9324 47.1876 16.9324 47.1876C18.9174 47.1876 20.7219 46.3756 22.0452 45.0824L19.2182 42.2854C18.6167 42.8568 17.8046 43.2177 16.9324 43.2177C15.1279 43.2177 13.6543 41.744 13.6543 39.9395C13.6543 38.135 15.1279 36.6613 16.9324 36.6613C17.8347 36.6613 18.6467 37.0222 19.2182 37.5937L22.0452 34.7967C20.7219 33.5034 18.9174 32.6914 16.9324 32.6914C12.9324 32.7215 9.68433 35.9395 9.68433 39.9395ZM78.3159 46.8869H74.1054L73.534 44.4809H68.9325L68.361 46.8869H64.1806L68.5716 32.9922H73.8648L78.3159 46.8869ZM72.8122 41.5335L71.5189 36.12H70.9174L69.6242 41.5335H72.8122ZM39.8497 59.0072H41.143V56.6613H43.5791V55.6087H41.143V54.4057H44.0603V53.323H39.8497V59.0072ZM29.955 57.0824C29.6543 57.5636 29.1129 57.8643 28.5114 57.8643C27.5791 57.8643 26.7971 57.1125 26.7971 56.1501C26.7971 55.2177 27.549 54.4358 28.5114 54.4358C29.0528 54.4358 29.5039 54.6764 29.8046 55.0373L30.6768 54.1651C30.1355 53.5636 29.3535 53.2027 28.4813 53.2027C26.8573 53.2027 25.534 54.526 25.534 56.1501C25.534 57.7741 26.8573 59.0974 28.4813 59.0974C29.4137 59.0974 30.2558 58.6463 30.7971 57.9546L29.955 57.0824ZM45.9249 59.0072H47.2182V56.6613H49.6543V55.6087H47.2182V54.4057H50.1355V53.323H45.9249V59.0072ZM53.2934 57.9245V56.6613H55.7295V55.6087H53.2934V54.4057H56.1505V53.323H52.0001V59.0373H56.2407V57.9546H53.2934V57.9245ZM62.4362 54.4057V53.323H58.2858V59.0373H62.5264V57.9546H59.549V56.6914H61.9851V55.6388H59.549V54.4358H62.4362V54.4057ZM35.0678 53.2328C36.6918 53.2328 38.0152 54.5561 38.0152 56.1801C38.0152 57.8042 36.6918 59.1275 35.0678 59.1275C33.4437 59.1275 32.1204 57.8042 32.1204 56.1801C32.1204 54.5561 33.4437 53.2328 35.0678 53.2328ZM35.0979 57.8643C36.0302 57.8643 36.7821 57.1125 36.7821 56.1801C36.7821 55.2478 36.0302 54.4959 35.0979 54.4959C34.1655 54.4959 33.4137 55.2478 33.4137 56.1801C33.4137 57.1125 34.1355 57.8643 35.0979 57.8643ZM31.1881 32.7215C35.1881 32.6313 38.5264 35.7892 38.6167 39.7892C38.7069 43.7892 35.549 47.1275 31.549 47.2177C27.549 47.3079 24.2106 44.1501 24.1204 40.1501C24.0302 36.1501 27.1881 32.8117 31.1881 32.7215ZM31.3385 43.2177C33.143 43.1876 34.5866 41.6538 34.5264 39.8493C34.4663 38.0448 32.9926 36.6012 31.158 36.6613C29.3535 36.7215 27.9099 38.1952 27.97 40.0298C28.0001 41.8343 29.534 43.2779 31.3385 43.2177Z" fill="#7F1935"/>
</svg>
